<svg width="25" height="25" viewBox="0 0 25 25" fill="none" xmlns="http://www.w3.org/2000/svg">
<path fill-rule="evenodd" clip-rule="evenodd" d="M12.261 21.3538C10.0904 20.0179 8.07111 18.4456 6.23929 16.6652C4.95144 15.3829 3.97101 13.8198 3.3731 12.0954C2.29714 8.75031 3.55393 4.92083 7.07112 3.78752C8.91961 3.19243 10.9384 3.53255 12.4961 4.70148C14.0543 3.53398 16.0725 3.19398 17.9211 3.78752C21.4383 4.92083 22.7041 8.75031 21.6281 12.0954C21.0302 13.8198 20.0498 15.3829 18.7619 16.6652C16.9301 18.4456 14.9108 20.0179 12.7402 21.3538L12.5051 21.5L12.261 21.3538Z" stroke="#200E32" stroke-width="1.5" stroke-linecap="round" stroke-linejoin="round"/>
<path d="M16.2394 7.55298C17.3047 7.89328 18.0616 8.84968 18.1562 9.97496" stroke="#200E32" stroke-width="1.5" stroke-linecap="round" stroke-linejoin="round"/>
</svg>
